# xmcd
#
# Track frame offsets: 
#        150
#        12755
#        23775
#        35820
#        49757
#        62025
#        74726
#        84923
#        93643
#
# Disc length: 1392 seconds
#
# Revision: 0
# Processed by: cddbd v1.5.2PL0 Copyright (c) Steve Scherf et al.
# Submitted via: ExactAudioCopy v1.3
#
DISCID=75056e09
DTITLE=Porter Wagoner and Dolly Parton - Say Forever You'll Be Mine
DYEAR=1975
DGENRE=Country
TTITLE0=Say Forever You'll Be Mine
TTITLE1=Something To Reach For
TTITLE2=Out Love
TTITLE3=The Beginning
TTITLE4=I Have No Right To Care
TTITLE5=If You Were Mine
TTITLE6=Love To See Us Through
TTITLE7=How Can I Help You Forgive Me
TTITLE8=Life Rides The Train
EXTD=
EXTT0=
EXTT1=
EXTT2=
EXTT3=
EXTT4=
EXTT5=
EXTT6=
EXTT7=
EXTT8=
PLAYORDER=
